<mxfile host="Electron" modified="2024-06-20T06:49:21.632Z" agent="Mozilla/5.0 (Windows NT 10.0; Win64; x64) AppleWebKit/537.36 (KHTML, like Gecko) draw.io/24.5.3 Chrome/124.0.6367.207 Electron/30.0.6 Safari/537.36" etag="Gb4G829thI-ZEPR9yGYC" version="24.5.3" type="device">
  <diagram id="C5RBs43oDa-KdzZeNtuy" name="Page-1">
    <mxGraphModel dx="4301" dy="3032" grid="1" gridSize="10" guides="1" tooltips="1" connect="1" arrows="1" fold="1" page="1" pageScale="1" pageWidth="827" pageHeight="1169" math="0" shadow="0">
      <root>
        <mxCell id="WIyWlLk6GJQsqaUBKTNV-0" />
        <mxCell id="WIyWlLk6GJQsqaUBKTNV-1" parent="WIyWlLk6GJQsqaUBKTNV-0" />
        <mxCell id="xDJIkS85OiSornvPXb_t-0" value="" style="rounded=0;whiteSpace=wrap;html=1;fillColor=none;align=center;" vertex="1" parent="WIyWlLk6GJQsqaUBKTNV-1">
          <mxGeometry x="-1270" y="-104.5" width="280" height="239" as="geometry" />
        </mxCell>
        <mxCell id="xDJIkS85OiSornvPXb_t-1" value="" style="rounded=0;whiteSpace=wrap;html=1;fillColor=none;align=center;" vertex="1" parent="WIyWlLk6GJQsqaUBKTNV-1">
          <mxGeometry x="80" y="-1090" width="280" height="280" as="geometry" />
        </mxCell>
        <mxCell id="xDJIkS85OiSornvPXb_t-2" value="" style="rounded=0;whiteSpace=wrap;html=1;fillColor=none;align=center;" vertex="1" parent="WIyWlLk6GJQsqaUBKTNV-1">
          <mxGeometry x="80" y="-290" width="280" height="240" as="geometry" />
        </mxCell>
        <mxCell id="xDJIkS85OiSornvPXb_t-3" value="" style="rounded=0;whiteSpace=wrap;html=1;fillColor=none;align=center;" vertex="1" parent="WIyWlLk6GJQsqaUBKTNV-1">
          <mxGeometry x="-1270" y="-580" width="280" height="230" as="geometry" />
        </mxCell>
        <mxCell id="xDJIkS85OiSornvPXb_t-4" value="" style="rounded=0;whiteSpace=wrap;html=1;fillColor=none;align=center;" vertex="1" parent="WIyWlLk6GJQsqaUBKTNV-1">
          <mxGeometry x="70" y="-690" width="280" height="205" as="geometry" />
        </mxCell>
        <mxCell id="xDJIkS85OiSornvPXb_t-5" value="" style="rounded=0;whiteSpace=wrap;html=1;fillColor=none;align=center;" vertex="1" parent="WIyWlLk6GJQsqaUBKTNV-1">
          <mxGeometry x="560" y="-120" width="280" height="240" as="geometry" />
        </mxCell>
        <mxCell id="xDJIkS85OiSornvPXb_t-6" value="" style="rounded=0;whiteSpace=wrap;html=1;fillColor=none;align=center;" vertex="1" parent="WIyWlLk6GJQsqaUBKTNV-1">
          <mxGeometry x="-680" y="-1080" width="280" height="1200" as="geometry" />
        </mxCell>
        <mxCell id="xDJIkS85OiSornvPXb_t-102" value="&lt;b&gt;&lt;font style=&quot;font-size: 24px;&quot;&gt;Задачи&lt;/font&gt;&lt;/b&gt;" style="text;strokeColor=none;fillColor=none;align=left;verticalAlign=middle;spacingLeft=4;spacingRight=4;overflow=hidden;points=[[0,0.5],[1,0.5]];portConstraint=eastwest;rotatable=0;whiteSpace=wrap;html=1;" vertex="1" parent="WIyWlLk6GJQsqaUBKTNV-1">
          <mxGeometry x="-500" y="-1110" width="100" height="30" as="geometry" />
        </mxCell>
        <mxCell id="xDJIkS85OiSornvPXb_t-103" value="&lt;b&gt;&lt;font style=&quot;font-size: 24px;&quot;&gt;Склад&lt;/font&gt;&lt;/b&gt;" style="text;strokeColor=none;fillColor=none;align=left;verticalAlign=middle;spacingLeft=4;spacingRight=4;overflow=hidden;points=[[0,0.5],[1,0.5]];portConstraint=eastwest;rotatable=0;whiteSpace=wrap;html=1;" vertex="1" parent="WIyWlLk6GJQsqaUBKTNV-1">
          <mxGeometry x="270" y="-1120" width="90" height="30" as="geometry" />
        </mxCell>
        <mxCell id="xDJIkS85OiSornvPXb_t-104" value="&lt;b&gt;&lt;font style=&quot;font-size: 24px;&quot;&gt;Тотализатор&lt;/font&gt;&lt;/b&gt;" style="text;strokeColor=none;fillColor=none;align=left;verticalAlign=middle;spacingLeft=4;spacingRight=4;overflow=hidden;points=[[0,0.5],[1,0.5]];portConstraint=eastwest;rotatable=0;whiteSpace=wrap;html=1;" vertex="1" parent="WIyWlLk6GJQsqaUBKTNV-1">
          <mxGeometry x="-1152" y="-134.5" width="162" height="30" as="geometry" />
        </mxCell>
        <mxCell id="xDJIkS85OiSornvPXb_t-105" value="&lt;b&gt;&lt;font style=&quot;font-size: 24px;&quot;&gt;Аудит&lt;/font&gt;&lt;/b&gt;" style="text;strokeColor=none;fillColor=none;align=left;verticalAlign=middle;spacingLeft=4;spacingRight=4;overflow=hidden;points=[[0,0.5],[1,0.5]];portConstraint=eastwest;rotatable=0;whiteSpace=wrap;html=1;" vertex="1" parent="WIyWlLk6GJQsqaUBKTNV-1">
          <mxGeometry x="268" y="-320" width="92" height="30" as="geometry" />
        </mxCell>
        <mxCell id="xDJIkS85OiSornvPXb_t-106" value="&lt;b&gt;&lt;font style=&quot;font-size: 24px;&quot;&gt;Заявки в воркеры&lt;/font&gt;&lt;/b&gt;" style="text;strokeColor=none;fillColor=none;align=left;verticalAlign=middle;spacingLeft=4;spacingRight=4;overflow=hidden;points=[[0,0.5],[1,0.5]];portConstraint=eastwest;rotatable=0;whiteSpace=wrap;html=1;" vertex="1" parent="WIyWlLk6GJQsqaUBKTNV-1">
          <mxGeometry x="-1222" y="-610" width="232" height="30" as="geometry" />
        </mxCell>
        <mxCell id="xDJIkS85OiSornvPXb_t-107" value="&lt;b&gt;&lt;font style=&quot;font-size: 24px;&quot;&gt;Билинг&lt;/font&gt;&lt;/b&gt;" style="text;strokeColor=none;fillColor=none;align=left;verticalAlign=middle;spacingLeft=4;spacingRight=4;overflow=hidden;points=[[0,0.5],[1,0.5]];portConstraint=eastwest;rotatable=0;whiteSpace=wrap;html=1;" vertex="1" parent="WIyWlLk6GJQsqaUBKTNV-1">
          <mxGeometry x="248" y="-720" width="102" height="30" as="geometry" />
        </mxCell>
        <mxCell id="xDJIkS85OiSornvPXb_t-108" value="&lt;b&gt;&lt;font style=&quot;font-size: 24px;&quot;&gt;Нотификации&lt;/font&gt;&lt;/b&gt;" style="text;strokeColor=none;fillColor=none;align=left;verticalAlign=middle;spacingLeft=4;spacingRight=4;overflow=hidden;points=[[0,0.5],[1,0.5]];portConstraint=eastwest;rotatable=0;whiteSpace=wrap;html=1;" vertex="1" parent="WIyWlLk6GJQsqaUBKTNV-1">
          <mxGeometry x="660" y="-150" width="180" height="30" as="geometry" />
        </mxCell>
        <mxCell id="xDJIkS85OiSornvPXb_t-109" value="" style="endArrow=classic;html=1;rounded=0;entryX=0;entryY=0.25;entryDx=0;entryDy=0;exitX=0.996;exitY=0.051;exitDx=0;exitDy=0;exitPerimeter=0;strokeWidth=5;strokeColor=#FF3333;" edge="1" parent="WIyWlLk6GJQsqaUBKTNV-1" source="xDJIkS85OiSornvPXb_t-6" target="xDJIkS85OiSornvPXb_t-1">
          <mxGeometry width="50" height="50" relative="1" as="geometry">
            <mxPoint x="890" y="-180" as="sourcePoint" />
            <mxPoint x="940" y="-230" as="targetPoint" />
          </mxGeometry>
        </mxCell>
        <mxCell id="xDJIkS85OiSornvPXb_t-110" value="Создана задача - domain event" style="edgeLabel;html=1;align=center;verticalAlign=middle;resizable=0;points=[];" vertex="1" connectable="0" parent="xDJIkS85OiSornvPXb_t-109">
          <mxGeometry x="-0.1894" relative="1" as="geometry">
            <mxPoint as="offset" />
          </mxGeometry>
        </mxCell>
        <mxCell id="xDJIkS85OiSornvPXb_t-111" value="" style="endArrow=classic;html=1;rounded=0;entryX=-0.001;entryY=0.032;entryDx=0;entryDy=0;exitX=0.996;exitY=0.051;exitDx=0;exitDy=0;exitPerimeter=0;strokeWidth=5;strokeColor=#FF3333;entryPerimeter=0;" edge="1" parent="WIyWlLk6GJQsqaUBKTNV-1" target="xDJIkS85OiSornvPXb_t-2">
          <mxGeometry width="50" height="50" relative="1" as="geometry">
            <mxPoint x="-401" y="-279" as="sourcePoint" />
            <mxPoint x="80" y="-280" as="targetPoint" />
          </mxGeometry>
        </mxCell>
        <mxCell id="xDJIkS85OiSornvPXb_t-112" value="Задача выполнена - domain event" style="edgeLabel;html=1;align=center;verticalAlign=middle;resizable=0;points=[];" vertex="1" connectable="0" parent="xDJIkS85OiSornvPXb_t-111">
          <mxGeometry x="-0.1894" relative="1" as="geometry">
            <mxPoint as="offset" />
          </mxGeometry>
        </mxCell>
        <mxCell id="xDJIkS85OiSornvPXb_t-115" value="" style="endArrow=classic;html=1;rounded=0;exitX=0.996;exitY=0.051;exitDx=0;exitDy=0;exitPerimeter=0;strokeWidth=5;strokeColor=#FF3333;" edge="1" parent="WIyWlLk6GJQsqaUBKTNV-1">
          <mxGeometry width="50" height="50" relative="1" as="geometry">
            <mxPoint x="-400" y="-237" as="sourcePoint" />
            <mxPoint x="80" y="-240" as="targetPoint" />
          </mxGeometry>
        </mxCell>
        <mxCell id="xDJIkS85OiSornvPXb_t-116" value="Задача отменена- domain event" style="edgeLabel;html=1;align=center;verticalAlign=middle;resizable=0;points=[];" vertex="1" connectable="0" parent="xDJIkS85OiSornvPXb_t-115">
          <mxGeometry x="-0.1894" relative="1" as="geometry">
            <mxPoint as="offset" />
          </mxGeometry>
        </mxCell>
        <mxCell id="xDJIkS85OiSornvPXb_t-117" value="" style="endArrow=classic;html=1;rounded=0;exitX=0.996;exitY=0.051;exitDx=0;exitDy=0;exitPerimeter=0;strokeWidth=5;strokeColor=#FF3333;" edge="1" parent="WIyWlLk6GJQsqaUBKTNV-1">
          <mxGeometry width="50" height="50" relative="1" as="geometry">
            <mxPoint x="-399" y="-197" as="sourcePoint" />
            <mxPoint x="80" y="-200" as="targetPoint" />
          </mxGeometry>
        </mxCell>
        <mxCell id="xDJIkS85OiSornvPXb_t-118" value="Задача провалена- domain event" style="edgeLabel;html=1;align=center;verticalAlign=middle;resizable=0;points=[];" vertex="1" connectable="0" parent="xDJIkS85OiSornvPXb_t-117">
          <mxGeometry x="-0.1894" relative="1" as="geometry">
            <mxPoint as="offset" />
          </mxGeometry>
        </mxCell>
        <mxCell id="xDJIkS85OiSornvPXb_t-120" value="" style="endArrow=classic;html=1;rounded=0;entryX=1;entryY=0;entryDx=0;entryDy=0;strokeWidth=5;strokeColor=#FF3333;exitX=-0.005;exitY=0.818;exitDx=0;exitDy=0;exitPerimeter=0;" edge="1" parent="WIyWlLk6GJQsqaUBKTNV-1" source="xDJIkS85OiSornvPXb_t-6" target="xDJIkS85OiSornvPXb_t-0">
          <mxGeometry width="50" height="50" relative="1" as="geometry">
            <mxPoint x="-370" y="220" as="sourcePoint" />
            <mxPoint x="213.5" y="110" as="targetPoint" />
            <Array as="points">
              <mxPoint x="-900" y="-100" />
            </Array>
          </mxGeometry>
        </mxCell>
        <mxCell id="xDJIkS85OiSornvPXb_t-121" value="Задача выполнена - domain event" style="edgeLabel;html=1;align=center;verticalAlign=middle;resizable=0;points=[];" vertex="1" connectable="0" parent="xDJIkS85OiSornvPXb_t-120">
          <mxGeometry x="-0.1894" relative="1" as="geometry">
            <mxPoint as="offset" />
          </mxGeometry>
        </mxCell>
        <mxCell id="xDJIkS85OiSornvPXb_t-122" value="" style="endArrow=classic;html=1;rounded=0;strokeWidth=5;strokeColor=#FF3333;entryX=1;entryY=0.25;entryDx=0;entryDy=0;exitX=-0.017;exitY=0.865;exitDx=0;exitDy=0;exitPerimeter=0;" edge="1" parent="WIyWlLk6GJQsqaUBKTNV-1" source="xDJIkS85OiSornvPXb_t-6" target="xDJIkS85OiSornvPXb_t-0">
          <mxGeometry width="50" height="50" relative="1" as="geometry">
            <mxPoint x="-640" y="120" as="sourcePoint" />
            <mxPoint x="-630" y="310" as="targetPoint" />
          </mxGeometry>
        </mxCell>
        <mxCell id="xDJIkS85OiSornvPXb_t-123" value="Задача отменена- domain event" style="edgeLabel;html=1;align=center;verticalAlign=middle;resizable=0;points=[];" vertex="1" connectable="0" parent="xDJIkS85OiSornvPXb_t-122">
          <mxGeometry x="-0.1894" relative="1" as="geometry">
            <mxPoint as="offset" />
          </mxGeometry>
        </mxCell>
        <mxCell id="xDJIkS85OiSornvPXb_t-124" value="" style="endArrow=classic;html=1;rounded=0;entryX=1;entryY=0.5;entryDx=0;entryDy=0;exitX=-0.005;exitY=0.918;exitDx=0;exitDy=0;strokeWidth=5;strokeColor=#FF3333;exitPerimeter=0;" edge="1" parent="WIyWlLk6GJQsqaUBKTNV-1" source="xDJIkS85OiSornvPXb_t-6" target="xDJIkS85OiSornvPXb_t-0">
          <mxGeometry width="50" height="50" relative="1" as="geometry">
            <mxPoint x="-373.5" y="195" as="sourcePoint" />
            <mxPoint x="215.5" y="192" as="targetPoint" />
            <Array as="points">
              <mxPoint x="-790" y="20" />
            </Array>
          </mxGeometry>
        </mxCell>
        <mxCell id="xDJIkS85OiSornvPXb_t-125" value="Задача провалена- domain event" style="edgeLabel;html=1;align=center;verticalAlign=middle;resizable=0;points=[];" vertex="1" connectable="0" parent="xDJIkS85OiSornvPXb_t-124">
          <mxGeometry x="-0.1894" relative="1" as="geometry">
            <mxPoint as="offset" />
          </mxGeometry>
        </mxCell>
        <mxCell id="xDJIkS85OiSornvPXb_t-126" value="" style="endArrow=classic;html=1;rounded=0;entryX=-0.021;entryY=0.431;entryDx=0;entryDy=0;exitX=1.014;exitY=0.088;exitDx=0;exitDy=0;exitPerimeter=0;strokeWidth=5;strokeColor=#FF3333;entryPerimeter=0;" edge="1" parent="WIyWlLk6GJQsqaUBKTNV-1" source="xDJIkS85OiSornvPXb_t-3" target="xDJIkS85OiSornvPXb_t-6">
          <mxGeometry width="50" height="50" relative="1" as="geometry">
            <mxPoint x="-1380" y="-757" as="sourcePoint" />
            <mxPoint x="-791" y="-760" as="targetPoint" />
          </mxGeometry>
        </mxCell>
        <mxCell id="xDJIkS85OiSornvPXb_t-127" value="Новый воркер создан - domain event" style="edgeLabel;html=1;align=center;verticalAlign=middle;resizable=0;points=[];" vertex="1" connectable="0" parent="xDJIkS85OiSornvPXb_t-126">
          <mxGeometry x="-0.1894" relative="1" as="geometry">
            <mxPoint as="offset" />
          </mxGeometry>
        </mxCell>
        <mxCell id="xDJIkS85OiSornvPXb_t-128" value="" style="endArrow=classic;html=1;rounded=0;entryX=-0.007;entryY=0.364;entryDx=0;entryDy=0;exitX=0.996;exitY=0.051;exitDx=0;exitDy=0;exitPerimeter=0;strokeWidth=5;strokeColor=#FF3333;entryPerimeter=0;" edge="1" parent="WIyWlLk6GJQsqaUBKTNV-1" target="xDJIkS85OiSornvPXb_t-5">
          <mxGeometry width="50" height="50" relative="1" as="geometry">
            <mxPoint x="-400" y="-27" as="sourcePoint" />
            <mxPoint x="81" y="-30" as="targetPoint" />
          </mxGeometry>
        </mxCell>
        <mxCell id="xDJIkS85OiSornvPXb_t-129" value="Задача выполнена - domain event" style="edgeLabel;html=1;align=center;verticalAlign=middle;resizable=0;points=[];" vertex="1" connectable="0" parent="xDJIkS85OiSornvPXb_t-128">
          <mxGeometry x="-0.1894" relative="1" as="geometry">
            <mxPoint as="offset" />
          </mxGeometry>
        </mxCell>
        <mxCell id="xDJIkS85OiSornvPXb_t-130" value="" style="endArrow=classic;html=1;rounded=0;exitX=0.996;exitY=0.051;exitDx=0;exitDy=0;exitPerimeter=0;strokeWidth=5;strokeColor=#FF3333;entryX=0.009;entryY=0.582;entryDx=0;entryDy=0;entryPerimeter=0;" edge="1" parent="WIyWlLk6GJQsqaUBKTNV-1" target="xDJIkS85OiSornvPXb_t-5">
          <mxGeometry width="50" height="50" relative="1" as="geometry">
            <mxPoint x="-399" y="15" as="sourcePoint" />
            <mxPoint x="81" y="12" as="targetPoint" />
          </mxGeometry>
        </mxCell>
        <mxCell id="xDJIkS85OiSornvPXb_t-131" value="Задача отменена- domain event" style="edgeLabel;html=1;align=center;verticalAlign=middle;resizable=0;points=[];" vertex="1" connectable="0" parent="xDJIkS85OiSornvPXb_t-130">
          <mxGeometry x="-0.1894" relative="1" as="geometry">
            <mxPoint as="offset" />
          </mxGeometry>
        </mxCell>
        <mxCell id="xDJIkS85OiSornvPXb_t-132" value="" style="endArrow=classic;html=1;rounded=0;exitX=0.996;exitY=0.051;exitDx=0;exitDy=0;exitPerimeter=0;strokeWidth=5;strokeColor=#FF3333;entryX=0;entryY=0.75;entryDx=0;entryDy=0;" edge="1" parent="WIyWlLk6GJQsqaUBKTNV-1" target="xDJIkS85OiSornvPXb_t-5">
          <mxGeometry width="50" height="50" relative="1" as="geometry">
            <mxPoint x="-398" y="55" as="sourcePoint" />
            <mxPoint x="81" y="52" as="targetPoint" />
          </mxGeometry>
        </mxCell>
        <mxCell id="xDJIkS85OiSornvPXb_t-133" value="Задача провалена- domain event" style="edgeLabel;html=1;align=center;verticalAlign=middle;resizable=0;points=[];" vertex="1" connectable="0" parent="xDJIkS85OiSornvPXb_t-132">
          <mxGeometry x="-0.1894" relative="1" as="geometry">
            <mxPoint as="offset" />
          </mxGeometry>
        </mxCell>
        <mxCell id="xDJIkS85OiSornvPXb_t-136" value="" style="endArrow=classic;html=1;rounded=0;exitX=0.996;exitY=0.051;exitDx=0;exitDy=0;exitPerimeter=0;strokeWidth=5;strokeColor=#FF3333;entryX=0;entryY=0.75;entryDx=0;entryDy=0;" edge="1" parent="WIyWlLk6GJQsqaUBKTNV-1">
          <mxGeometry width="50" height="50" relative="1" as="geometry">
            <mxPoint x="-400" y="90" as="sourcePoint" />
            <mxPoint x="558" y="95" as="targetPoint" />
          </mxGeometry>
        </mxCell>
        <mxCell id="xDJIkS85OiSornvPXb_t-137" value="Задача готова/начата/и тд - domain event" style="edgeLabel;html=1;align=center;verticalAlign=middle;resizable=0;points=[];" vertex="1" connectable="0" parent="xDJIkS85OiSornvPXb_t-136">
          <mxGeometry x="-0.1894" relative="1" as="geometry">
            <mxPoint as="offset" />
          </mxGeometry>
        </mxCell>
        <mxCell id="xDJIkS85OiSornvPXb_t-138" value="" style="endArrow=classic;html=1;rounded=0;exitX=-0.008;exitY=0.421;exitDx=0;exitDy=0;exitPerimeter=0;strokeWidth=5;strokeColor=#FF3333;entryX=1.022;entryY=0.4;entryDx=0;entryDy=0;entryPerimeter=0;" edge="1" parent="WIyWlLk6GJQsqaUBKTNV-1" source="xDJIkS85OiSornvPXb_t-4" target="xDJIkS85OiSornvPXb_t-6">
          <mxGeometry width="50" height="50" relative="1" as="geometry">
            <mxPoint x="-180" y="-667" as="sourcePoint" />
            <mxPoint x="301" y="-670" as="targetPoint" />
          </mxGeometry>
        </mxCell>
        <mxCell id="xDJIkS85OiSornvPXb_t-139" value="Задача оплачена - domain event" style="edgeLabel;html=1;align=center;verticalAlign=middle;resizable=0;points=[];" vertex="1" connectable="0" parent="xDJIkS85OiSornvPXb_t-138">
          <mxGeometry x="-0.1894" relative="1" as="geometry">
            <mxPoint as="offset" />
          </mxGeometry>
        </mxCell>
        <mxCell id="xDJIkS85OiSornvPXb_t-140" value="" style="endArrow=classic;html=1;rounded=0;exitX=0.996;exitY=0.051;exitDx=0;exitDy=0;exitPerimeter=0;strokeWidth=5;strokeColor=#FF3333;" edge="1" parent="WIyWlLk6GJQsqaUBKTNV-1" target="xDJIkS85OiSornvPXb_t-108">
          <mxGeometry width="50" height="50" relative="1" as="geometry">
            <mxPoint x="359" y="-1019" as="sourcePoint" />
            <mxPoint x="840" y="-1020" as="targetPoint" />
            <Array as="points">
              <mxPoint x="750" y="-1019" />
            </Array>
          </mxGeometry>
        </mxCell>
        <mxCell id="xDJIkS85OiSornvPXb_t-141" value="Расходники готовы/выданы - domain event" style="edgeLabel;html=1;align=center;verticalAlign=middle;resizable=0;points=[];" vertex="1" connectable="0" parent="xDJIkS85OiSornvPXb_t-140">
          <mxGeometry x="-0.1894" relative="1" as="geometry">
            <mxPoint as="offset" />
          </mxGeometry>
        </mxCell>
        <mxCell id="xDJIkS85OiSornvPXb_t-167" value="Печенья готовы/выданы - domain event" style="edgeLabel;html=1;align=center;verticalAlign=middle;resizable=0;points=[];" vertex="1" connectable="0" parent="xDJIkS85OiSornvPXb_t-140">
          <mxGeometry x="-0.0607" y="-1" relative="1" as="geometry">
            <mxPoint as="offset" />
          </mxGeometry>
        </mxCell>
        <mxCell id="xDJIkS85OiSornvPXb_t-144" value="" style="endArrow=classic;html=1;rounded=0;exitX=1;exitY=0.25;exitDx=0;exitDy=0;strokeWidth=5;strokeColor=#FF3333;" edge="1" parent="WIyWlLk6GJQsqaUBKTNV-1" source="xDJIkS85OiSornvPXb_t-4">
          <mxGeometry width="50" height="50" relative="1" as="geometry">
            <mxPoint x="78" y="-594" as="sourcePoint" />
            <mxPoint x="650" y="-130" as="targetPoint" />
            <Array as="points">
              <mxPoint x="660" y="-639" />
            </Array>
          </mxGeometry>
        </mxCell>
        <mxCell id="xDJIkS85OiSornvPXb_t-145" value="Задача оплачена - domain event" style="edgeLabel;html=1;align=center;verticalAlign=middle;resizable=0;points=[];" vertex="1" connectable="0" parent="xDJIkS85OiSornvPXb_t-144">
          <mxGeometry x="-0.1894" relative="1" as="geometry">
            <mxPoint as="offset" />
          </mxGeometry>
        </mxCell>
        <mxCell id="xDJIkS85OiSornvPXb_t-146" value="" style="endArrow=classic;html=1;rounded=0;entryX=0;entryY=0.25;entryDx=0;entryDy=0;exitX=0.996;exitY=0.051;exitDx=0;exitDy=0;exitPerimeter=0;strokeWidth=5;strokeColor=#3333FF;" edge="1" parent="WIyWlLk6GJQsqaUBKTNV-1">
          <mxGeometry width="50" height="50" relative="1" as="geometry">
            <mxPoint x="-401" y="-979" as="sourcePoint" />
            <mxPoint x="80" y="-980" as="targetPoint" />
          </mxGeometry>
        </mxCell>
        <mxCell id="xDJIkS85OiSornvPXb_t-147" value="Задачи - streaming" style="edgeLabel;html=1;align=center;verticalAlign=middle;resizable=0;points=[];" vertex="1" connectable="0" parent="xDJIkS85OiSornvPXb_t-146">
          <mxGeometry x="-0.1894" relative="1" as="geometry">
            <mxPoint as="offset" />
          </mxGeometry>
        </mxCell>
        <mxCell id="xDJIkS85OiSornvPXb_t-148" value="" style="endArrow=classic;html=1;rounded=0;entryX=0.007;entryY=0.196;entryDx=0;entryDy=0;exitX=0.996;exitY=0.051;exitDx=0;exitDy=0;exitPerimeter=0;strokeWidth=5;strokeColor=#3333FF;entryPerimeter=0;" edge="1" parent="WIyWlLk6GJQsqaUBKTNV-1" target="xDJIkS85OiSornvPXb_t-4">
          <mxGeometry width="50" height="50" relative="1" as="geometry">
            <mxPoint x="-400" y="-649" as="sourcePoint" />
            <mxPoint x="81" y="-650" as="targetPoint" />
          </mxGeometry>
        </mxCell>
        <mxCell id="xDJIkS85OiSornvPXb_t-149" value="Задачи - streaming" style="edgeLabel;html=1;align=center;verticalAlign=middle;resizable=0;points=[];" vertex="1" connectable="0" parent="xDJIkS85OiSornvPXb_t-148">
          <mxGeometry x="-0.1894" relative="1" as="geometry">
            <mxPoint as="offset" />
          </mxGeometry>
        </mxCell>
        <mxCell id="xDJIkS85OiSornvPXb_t-150" value="" style="endArrow=classic;html=1;rounded=0;entryX=1;entryY=0.75;entryDx=0;entryDy=0;exitX=-0.006;exitY=0.962;exitDx=0;exitDy=0;exitPerimeter=0;strokeWidth=5;strokeColor=#3333FF;" edge="1" parent="WIyWlLk6GJQsqaUBKTNV-1" source="xDJIkS85OiSornvPXb_t-6" target="xDJIkS85OiSornvPXb_t-0">
          <mxGeometry width="50" height="50" relative="1" as="geometry">
            <mxPoint x="-390" y="-639" as="sourcePoint" />
            <mxPoint x="82" y="-640" as="targetPoint" />
          </mxGeometry>
        </mxCell>
        <mxCell id="xDJIkS85OiSornvPXb_t-151" value="Задачи - streaming" style="edgeLabel;html=1;align=center;verticalAlign=middle;resizable=0;points=[];" vertex="1" connectable="0" parent="xDJIkS85OiSornvPXb_t-150">
          <mxGeometry x="-0.1894" relative="1" as="geometry">
            <mxPoint as="offset" />
          </mxGeometry>
        </mxCell>
        <mxCell id="xDJIkS85OiSornvPXb_t-152" value="" style="endArrow=classic;html=1;rounded=0;entryX=0.007;entryY=0.196;entryDx=0;entryDy=0;exitX=0.996;exitY=0.051;exitDx=0;exitDy=0;exitPerimeter=0;strokeWidth=5;strokeColor=#3333FF;entryPerimeter=0;" edge="1" parent="WIyWlLk6GJQsqaUBKTNV-1">
          <mxGeometry width="50" height="50" relative="1" as="geometry">
            <mxPoint x="-392" y="-119" as="sourcePoint" />
            <mxPoint x="80" y="-120" as="targetPoint" />
          </mxGeometry>
        </mxCell>
        <mxCell id="xDJIkS85OiSornvPXb_t-153" value="Задачи - streaming" style="edgeLabel;html=1;align=center;verticalAlign=middle;resizable=0;points=[];" vertex="1" connectable="0" parent="xDJIkS85OiSornvPXb_t-152">
          <mxGeometry x="-0.1894" relative="1" as="geometry">
            <mxPoint as="offset" />
          </mxGeometry>
        </mxCell>
        <mxCell id="xDJIkS85OiSornvPXb_t-154" value="" style="endArrow=classic;html=1;rounded=0;entryX=0;entryY=1;entryDx=0;entryDy=0;exitX=0.996;exitY=0.051;exitDx=0;exitDy=0;exitPerimeter=0;strokeWidth=5;strokeColor=#3333FF;" edge="1" parent="WIyWlLk6GJQsqaUBKTNV-1" target="xDJIkS85OiSornvPXb_t-5">
          <mxGeometry width="50" height="50" relative="1" as="geometry">
            <mxPoint x="-392" y="121" as="sourcePoint" />
            <mxPoint x="80" y="120" as="targetPoint" />
          </mxGeometry>
        </mxCell>
        <mxCell id="xDJIkS85OiSornvPXb_t-155" value="Задачи - streaming" style="edgeLabel;html=1;align=center;verticalAlign=middle;resizable=0;points=[];" vertex="1" connectable="0" parent="xDJIkS85OiSornvPXb_t-154">
          <mxGeometry x="-0.1894" relative="1" as="geometry">
            <mxPoint as="offset" />
          </mxGeometry>
        </mxCell>
        <mxCell id="xDJIkS85OiSornvPXb_t-156" value="" style="endArrow=classic;html=1;rounded=0;entryX=0.057;entryY=-0.016;entryDx=0;entryDy=0;exitX=0.996;exitY=0.051;exitDx=0;exitDy=0;exitPerimeter=0;strokeWidth=5;strokeColor=#3333FF;entryPerimeter=0;" edge="1" parent="WIyWlLk6GJQsqaUBKTNV-1" target="xDJIkS85OiSornvPXb_t-5">
          <mxGeometry width="50" height="50" relative="1" as="geometry">
            <mxPoint x="350" y="-569" as="sourcePoint" />
            <mxPoint x="822" y="-570" as="targetPoint" />
            <Array as="points">
              <mxPoint x="576" y="-569" />
            </Array>
          </mxGeometry>
        </mxCell>
        <mxCell id="xDJIkS85OiSornvPXb_t-157" value="Клиент - streaming" style="edgeLabel;html=1;align=center;verticalAlign=middle;resizable=0;points=[];" vertex="1" connectable="0" parent="xDJIkS85OiSornvPXb_t-156">
          <mxGeometry x="-0.1894" relative="1" as="geometry">
            <mxPoint as="offset" />
          </mxGeometry>
        </mxCell>
        <mxCell id="xDJIkS85OiSornvPXb_t-158" value="" style="endArrow=classic;html=1;rounded=0;entryX=-0.021;entryY=0.136;entryDx=0;entryDy=0;exitX=0.996;exitY=0.051;exitDx=0;exitDy=0;exitPerimeter=0;strokeWidth=5;strokeColor=#3333FF;entryPerimeter=0;" edge="1" parent="WIyWlLk6GJQsqaUBKTNV-1" target="xDJIkS85OiSornvPXb_t-5">
          <mxGeometry width="50" height="50" relative="1" as="geometry">
            <mxPoint x="360" y="-89" as="sourcePoint" />
            <mxPoint x="832" y="-90" as="targetPoint" />
          </mxGeometry>
        </mxCell>
        <mxCell id="xDJIkS85OiSornvPXb_t-159" value="Менеджер - streaming" style="edgeLabel;html=1;align=center;verticalAlign=middle;resizable=0;points=[];" vertex="1" connectable="0" parent="xDJIkS85OiSornvPXb_t-158">
          <mxGeometry x="-0.1894" relative="1" as="geometry">
            <mxPoint as="offset" />
          </mxGeometry>
        </mxCell>
        <mxCell id="xDJIkS85OiSornvPXb_t-160" value="" style="endArrow=classic;html=1;rounded=0;entryX=1.007;entryY=0.937;entryDx=0;entryDy=0;exitX=0;exitY=1;exitDx=0;exitDy=0;strokeWidth=5;strokeColor=#3333FF;entryPerimeter=0;" edge="1" parent="WIyWlLk6GJQsqaUBKTNV-1" source="xDJIkS85OiSornvPXb_t-6" target="xDJIkS85OiSornvPXb_t-0">
          <mxGeometry width="50" height="50" relative="1" as="geometry">
            <mxPoint x="-930" y="331" as="sourcePoint" />
            <mxPoint x="-458" y="330" as="targetPoint" />
          </mxGeometry>
        </mxCell>
        <mxCell id="xDJIkS85OiSornvPXb_t-161" value="Менеджер - streaming" style="edgeLabel;html=1;align=center;verticalAlign=middle;resizable=0;points=[];" vertex="1" connectable="0" parent="xDJIkS85OiSornvPXb_t-160">
          <mxGeometry x="-0.1894" relative="1" as="geometry">
            <mxPoint as="offset" />
          </mxGeometry>
        </mxCell>
        <mxCell id="xDJIkS85OiSornvPXb_t-164" value="" style="endArrow=classic;html=1;rounded=0;entryX=1;entryY=0.25;entryDx=0;entryDy=0;exitX=0.996;exitY=0.051;exitDx=0;exitDy=0;exitPerimeter=0;strokeWidth=5;strokeColor=#3333FF;" edge="1" parent="WIyWlLk6GJQsqaUBKTNV-1" target="xDJIkS85OiSornvPXb_t-5">
          <mxGeometry width="50" height="50" relative="1" as="geometry">
            <mxPoint x="360" y="-1079" as="sourcePoint" />
            <mxPoint x="832" y="-1080" as="targetPoint" />
            <Array as="points">
              <mxPoint x="960" y="-1079" />
              <mxPoint x="960" y="-60" />
            </Array>
          </mxGeometry>
        </mxCell>
        <mxCell id="xDJIkS85OiSornvPXb_t-165" value="Кладовщик - streaming" style="edgeLabel;html=1;align=center;verticalAlign=middle;resizable=0;points=[];" vertex="1" connectable="0" parent="xDJIkS85OiSornvPXb_t-164">
          <mxGeometry x="-0.1894" relative="1" as="geometry">
            <mxPoint as="offset" />
          </mxGeometry>
        </mxCell>
        <mxCell id="xDJIkS85OiSornvPXb_t-166" value="Заявки - streaming" style="edgeLabel;html=1;align=center;verticalAlign=middle;resizable=0;points=[];" vertex="1" connectable="0" parent="xDJIkS85OiSornvPXb_t-164">
          <mxGeometry x="-0.1292" y="-1" relative="1" as="geometry">
            <mxPoint as="offset" />
          </mxGeometry>
        </mxCell>
      </root>
    </mxGraphModel>
  </diagram>
</mxfile>
